<svg width="21" height="20" viewBox="0 0 21 20" fill="none" xmlns="http://www.w3.org/2000/svg">
<path fill-rule="evenodd" clip-rule="evenodd" d="M5.73209 8.97374C5.64792 8.87284 5.58447 8.75635 5.54535 8.63091C5.50623 8.50548 5.49221 8.37357 5.5041 8.24271C5.51599 8.11186 5.55355 7.98463 5.61463 7.8683C5.67571 7.75197 5.75912 7.64882 5.86009 7.56474L9.86009 4.23174C9.96044 4.14394 10.0773 4.0771 10.2039 4.03515C10.3305 3.9932 10.4642 3.97699 10.5971 3.98747C10.73 3.99794 10.8595 4.0349 10.978 4.09616C11.0964 4.15743 11.2014 4.24175 11.2867 4.34419C11.3721 4.44663 11.4361 4.5651 11.475 4.69264C11.5139 4.82018 11.5269 4.95422 11.5133 5.08686C11.4996 5.2195 11.4595 5.34806 11.3955 5.46499C11.3314 5.58193 11.2445 5.68486 11.1401 5.76774L7.14009 9.10174C6.93637 9.2714 6.67362 9.35323 6.40959 9.32923C6.14556 9.30522 5.90187 9.17736 5.73209 8.97374Z" fill="white"/>
<path fill-rule="evenodd" clip-rule="evenodd" d="M15.2679 8.97374C15.0981 9.17736 14.8544 9.30522 14.5904 9.32923C14.3264 9.35323 14.0636 9.2714 13.8599 9.10174L9.85988 5.76774C9.75543 5.68486 9.6686 5.58193 9.60452 5.46499C9.54043 5.34806 9.50038 5.2195 9.48671 5.08686C9.47305 4.95422 9.48604 4.82018 9.52495 4.69264C9.56385 4.5651 9.62786 4.44663 9.71322 4.34419C9.79859 4.24175 9.90358 4.15743 10.022 4.09616C10.1404 4.0349 10.2699 3.99794 10.4029 3.98747C10.5358 3.97699 10.6695 3.9932 10.7961 4.03515C10.9226 4.0771 11.0395 4.14394 11.1399 4.23174L15.1399 7.56474C15.2409 7.64882 15.3243 7.75197 15.3853 7.8683C15.4464 7.98463 15.484 8.11186 15.4959 8.24271C15.5078 8.37357 15.4937 8.50548 15.4546 8.63091C15.4155 8.75635 15.352 8.87284 15.2679 8.97374Z" fill="white"/>
<path fill-rule="evenodd" clip-rule="evenodd" d="M10.5 6C10.7652 6 11.0196 6.10536 11.2071 6.29289C11.3946 6.48043 11.5 6.73478 11.5 7V15C11.5 15.2652 11.3946 15.5196 11.2071 15.7071C11.0196 15.8946 10.7652 16 10.5 16C10.2348 16 9.98043 15.8946 9.79289 15.7071C9.60536 15.5196 9.5 15.2652 9.5 15V7C9.5 6.73478 9.60536 6.48043 9.79289 6.29289C9.98043 6.10536 10.2348 6 10.5 6Z" fill="white"/>
</svg>
