<svg width="21" height="20" viewBox="0 0 21 20" fill="none" xmlns="http://www.w3.org/2000/svg">
<path fill-rule="evenodd" clip-rule="evenodd" d="M5.73209 11.0263C5.64792 11.1272 5.58447 11.2437 5.54535 11.3691C5.50623 11.4945 5.49221 11.6264 5.5041 11.7573C5.51599 11.8881 5.55355 12.0154 5.61463 12.1317C5.67571 12.248 5.75912 12.3512 5.86009 12.4353L9.86009 15.7683C9.96044 15.8561 10.0773 15.9229 10.2039 15.9648C10.3305 16.0068 10.4642 16.023 10.5971 16.0125C10.73 16.0021 10.8595 15.9651 10.978 15.9038C11.0964 15.8426 11.2014 15.7582 11.2867 15.6558C11.3721 15.5534 11.4361 15.4349 11.475 15.3074C11.5139 15.1798 11.5269 15.0458 11.5133 14.9131C11.4996 14.7805 11.4595 14.6519 11.3955 14.535C11.3314 14.4181 11.2445 14.3151 11.1401 14.2323L7.14009 10.8983C6.93637 10.7286 6.67362 10.6468 6.40959 10.6708C6.14556 10.6948 5.90187 10.8226 5.73209 11.0263Z" fill="white"/>
<path fill-rule="evenodd" clip-rule="evenodd" d="M15.2679 11.0263C15.0981 10.8226 14.8544 10.6948 14.5904 10.6708C14.3264 10.6468 14.0636 10.7286 13.8599 10.8983L9.85988 14.2323C9.75543 14.3151 9.6686 14.4181 9.60452 14.535C9.54043 14.6519 9.50038 14.7805 9.48671 14.9131C9.47305 15.0458 9.48604 15.1798 9.52495 15.3074C9.56385 15.4349 9.62786 15.5534 9.71322 15.6558C9.79859 15.7582 9.90358 15.8426 10.022 15.9038C10.1404 15.9651 10.2699 16.0021 10.4029 16.0125C10.5358 16.023 10.6695 16.0068 10.7961 15.9648C10.9226 15.9229 11.0395 15.8561 11.1399 15.7683L15.1399 12.4353C15.2409 12.3512 15.3243 12.248 15.3853 12.1317C15.4464 12.0154 15.484 11.8881 15.4959 11.7573C15.5078 11.6264 15.4937 11.4945 15.4546 11.3691C15.4155 11.2437 15.352 11.1272 15.2679 11.0263Z" fill="white"/>
<path fill-rule="evenodd" clip-rule="evenodd" d="M10.5 14C10.7652 14 11.0196 13.8946 11.2071 13.7071C11.3946 13.5196 11.5 13.2652 11.5 13V5C11.5 4.73478 11.3946 4.48043 11.2071 4.29289C11.0196 4.10536 10.7652 4 10.5 4C10.2348 4 9.98043 4.10536 9.79289 4.29289C9.60536 4.48043 9.5 4.73478 9.5 5V13C9.5 13.2652 9.60536 13.5196 9.79289 13.7071C9.98043 13.8946 10.2348 14 10.5 14Z" fill="white"/>
</svg>
