<svg width="1512" height="982" viewBox="0 0 1512 982" fill="none" xmlns="http://www.w3.org/2000/svg">
<g clip-path="url(#clip0_90_135)">
<g opacity="0.17" clip-path="url(#clip1_90_135)">
<path d="M-851.732 65.1006C-851.732 65.1006 -507.809 93.1794 -220.404 541.988C2.15081 889.497 235.42 932.879 625.409 710.437C1015.42 488.04 1203.29 336.846 1563.01 653.653" stroke="white" stroke-width="3.49597" stroke-miterlimit="10"/>
<path d="M-853.747 72.4207C-853.747 72.4207 -510.408 110.581 -217.965 544.958C8.9595 882.015 244.205 913.177 634.217 700.471C1024.24 487.733 1203.26 344.234 1563.83 655.878" stroke="#F9F9F9" stroke-width="3.49597" stroke-miterlimit="10"/>
<path d="M-855.744 79.712C-855.744 79.712 -512.908 128.028 -215.522 547.931C15.7896 874.582 252.946 893.495 643.042 690.476C1033.11 487.442 1203.25 351.626 1564.7 658.088" stroke="#F3F3F3" stroke-width="3.49597" stroke-miterlimit="10"/>
<path d="M-857.717 87.0119C-857.717 87.0119 -515.305 145.479 -213.088 550.899C22.6897 867.14 261.712 873.822 651.828 680.461C1041.93 487.132 1203.22 359.012 1565.49 660.264" stroke="#ECECEC" stroke-width="3.49597" stroke-miterlimit="10"/>
<path d="M-859.713 94.3372C-859.713 94.3372 -517.661 162.984 -210.63 553.873C29.6487 859.797 270.514 854.125 660.668 670.468C1050.82 486.812 1203.21 366.405 1566.34 662.462" stroke="#E6E6E6" stroke-width="3.49597" stroke-miterlimit="10"/>
<path d="M-861.726 101.623C-861.726 101.623 -519.938 180.492 -208.235 556.827C36.5913 852.416 279.24 834.438 669.431 660.486C1059.62 486.535 1203.13 373.809 1567.14 664.717" stroke="#E0E0E0" stroke-width="3.49597" stroke-miterlimit="10"/>
<path d="M-863.728 108.949C-863.728 108.949 -522.14 198.067 -205.784 559.803C43.6868 845.097 288.023 814.773 678.266 650.494C1068.51 486.215 1203.12 381.203 1568.01 666.929" stroke="#DADADA" stroke-width="3.49597" stroke-miterlimit="10"/>
<path d="M-865.733 116.239C-865.733 116.239 -524.236 215.616 -203.35 562.775C50.829 837.803 296.77 795.058 687.051 640.484C1077.33 485.909 1203.09 388.593 1568.81 669.11" stroke="#D3D3D3" stroke-width="3.49597" stroke-miterlimit="10"/>
<path d="M-867.695 123.546C-867.695 123.546 -526.176 233.192 -200.889 565.717C58.0759 830.476 305.562 775.36 695.894 630.459C1086.2 485.621 1203.08 395.987 1569.64 671.34" stroke="#CDCDCD" stroke-width="3.49597" stroke-miterlimit="10"/>
<path d="M-869.714 130.865C-869.714 130.865 -528.052 250.758 -198.469 568.718C65.3778 823.249 314.327 755.689 704.683 620.524C1095.05 485.326 1203.05 403.374 1570.5 673.545" stroke="#C7C7C7" stroke-width="3.49597" stroke-miterlimit="10"/>
<path d="M-871.702 138.16C-871.702 138.16 -529.817 268.296 -196.049 571.681C72.7584 815.979 323.078 736.011 713.454 610.504C1103.86 485.012 1203.01 410.755 1571.3 675.763" stroke="#C1C1C1" stroke-width="3.49597" stroke-miterlimit="10"/>
<path d="M-873.718 145.48C-873.718 145.48 -531.533 285.855 -193.612 574.651C80.2016 808.699 331.814 716.326 722.274 600.506C1112.73 484.686 1202.99 418.143 1572.13 677.955" stroke="#BBBBBB" stroke-width="3.49597" stroke-miterlimit="10"/>
<path d="M-875.729 152.768C-875.729 152.768 -533.073 303.342 -191.215 577.606C87.729 801.382 340.557 696.609 731.054 590.494C1121.52 484.365 1202.92 425.517 1572.95 680.148" stroke="#B4B4B4" stroke-width="3.49597" stroke-miterlimit="10"/>
<path d="M-877.71 160.061C-877.71 160.061 -534.492 320.797 -188.743 580.549C95.4416 794.063 349.36 676.911 739.894 580.501C1130.4 484.076 1202.95 432.924 1573.8 682.345" stroke="#AEAEAE" stroke-width="3.49597" stroke-miterlimit="10"/>
<path d="M-879.704 167.401C-879.704 167.401 -535.817 338.232 -186.296 583.571C103.189 786.772 358.137 657.293 748.692 570.541C1139.25 483.788 1202.9 440.35 1574.64 684.591" stroke="#A8A8A8" stroke-width="3.49597" stroke-miterlimit="10"/>
<path d="M-881.688 174.689C-881.688 174.689 -536.994 355.559 -183.873 586.526C110.972 779.364 366.905 637.575 757.497 560.528C1148.09 483.48 1202.86 447.724 1575.45 686.8" stroke="#A2A2A2" stroke-width="3.49597" stroke-miterlimit="10"/>
<path d="M-883.701 181.973C-883.701 181.973 -538.127 372.801 -181.432 589.46C118.897 771.914 375.645 617.854 766.307 550.525C1156.94 483.182 1202.86 455.122 1576.3 689.003" stroke="#9B9B9B" stroke-width="3.49597" stroke-miterlimit="10"/>
<path d="M-885.707 189.306C-885.707 189.306 -539.132 389.993 -179.031 592.461C126.857 764.448 384.378 598.215 775.091 540.559C1165.77 482.888 1202.8 462.541 1577.09 691.227" stroke="#959595" stroke-width="3.49597" stroke-miterlimit="10"/>
<path d="M-887.718 196.592C-887.718 196.592 -540.068 407.054 -176.588 595.397C134.933 756.835 393.166 578.479 783.885 530.513C1174.6 482.547 1202.75 469.882 1577.93 693.386" stroke="#8F8F8F" stroke-width="3.49597" stroke-miterlimit="10"/>
<path d="M-889.687 203.928C-889.687 203.928 -540.842 424.065 -174.117 598.414C143.078 749.207 401.968 558.855 792.738 520.562C1183.51 482.269 1202.79 477.331 1578.79 695.626" stroke="#898989" stroke-width="3.49597" stroke-miterlimit="10"/>
<path d="M-891.689 211.216C-891.689 211.216 -541.64 440.919 -171.698 601.338C151.278 741.417 410.718 539.139 801.541 510.518C1192.35 481.93 1202.75 484.674 1579.63 697.819" stroke="#838383" stroke-width="3.49597" stroke-miterlimit="10"/>
<path d="M-893.681 218.512C-893.681 218.512 -542.294 457.647 -169.251 604.315C159.516 733.571 419.479 519.429 810.357 500.559C1201.2 481.675 1202.73 492.069 1580.45 700.051" stroke="#7C7C7C" stroke-width="3.49597" stroke-miterlimit="10"/>
<path d="M-895.701 225.828C-895.701 225.828 -542.996 474.272 -166.862 607.299C167.783 725.617 428.198 499.773 819.096 490.561C1209.99 481.35 1202.66 499.471 1581.24 702.258" stroke="#767676" stroke-width="3.49597" stroke-miterlimit="10"/>
<path d="M-897.686 233.129C-897.686 233.129 -543.591 490.801 -164.394 610.25C176.107 717.507 437.011 480.051 827.947 480.545C1218.88 481.038 1202.67 506.841 1582.1 704.432" stroke="#707070" stroke-width="3.49597" stroke-miterlimit="10"/>
<path d="M-899.71 240.447C-899.71 240.447 -544.233 507.19 -162.011 613.236C184.388 709.335 445.726 460.397 836.699 470.595C1227.7 480.729 1202.62 514.26 1582.91 706.655" stroke="#6A6A6A" stroke-width="3.49597" stroke-miterlimit="10"/>
<path d="M-901.674 247.752C-901.674 247.752 -544.792 523.423 -159.521 616.19C192.785 701.021 454.546 440.711 845.571 460.581C1236.6 480.452 1202.6 521.65 1583.76 708.896" stroke="#646464" stroke-width="3.49597" stroke-miterlimit="10"/>
<path d="M-903.67 255.044C-903.67 255.044 -545.385 539.565 -157.077 619.164C201.116 692.603 463.29 421.029 854.367 450.572C1245.43 480.148 1202.58 529.042 1584.6 711.092" stroke="#5D5D5D" stroke-width="3.49597" stroke-miterlimit="10"/>
<path d="M-905.696 262.362C-905.696 262.362 -546.063 555.596 -154.682 622.118C209.421 684.023 472.03 401.311 863.144 440.559C1254.26 479.806 1202.52 536.414 1585.39 713.269" stroke="#575757" stroke-width="3.49597" stroke-miterlimit="10"/>
<path d="M-907.686 269.655C-907.686 269.655 -546.695 571.492 -152.232 625.093C217.745 675.372 480.811 381.645 871.963 430.598C1263.12 479.55 1202.49 543.84 1586.25 715.513" stroke="#515151" stroke-width="3.49597" stroke-miterlimit="10"/>
<path d="M-909.691 276.941C-909.691 276.941 -547.41 587.273 -149.829 628.046C225.985 666.606 489.577 361.972 880.749 420.583C1271.92 479.194 1202.46 551.225 1587.05 717.689" stroke="#4B4B4B" stroke-width="3.49597" stroke-miterlimit="10"/>
<path d="M-911.66 284.281C-911.66 284.281 -548.126 603.018 -147.344 631.036C234.221 657.726 498.375 342.276 889.584 410.591C1280.79 478.907 1202.45 558.62 1587.91 719.935" stroke="#444444" stroke-width="3.49597" stroke-miterlimit="10"/>
<path d="M-913.671 291.566C-913.671 291.566 -548.951 618.601 -144.915 634.003C242.384 648.777 507.103 322.588 898.396 400.59C1289.64 478.611 1202.42 566.005 1588.73 722.124" stroke="#3E3E3E" stroke-width="3.49597" stroke-miterlimit="10"/>
<path d="M-915.678 298.891C-915.678 298.891 -549.856 634.15 -142.502 636.964C250.462 639.715 515.862 302.876 907.178 390.615C1298.48 478.308 1202.39 573.43 1589.56 724.354" stroke="#383838" stroke-width="3.49597" stroke-miterlimit="10"/>
<path d="M-917.686 306.183C-917.686 306.183 -550.81 649.607 -140.069 639.937C258.492 630.56 524.626 283.209 915.962 380.607C1307.3 478.004 1202.35 580.777 1590.35 726.537" stroke="#323232" stroke-width="3.49597" stroke-miterlimit="10"/>
<path d="M-919.67 313.479C-919.67 313.479 -551.824 664.993 -137.646 642.901C266.462 621.336 533.394 263.5 924.768 370.603C1316.14 477.705 1202.31 588.159 1591.19 728.769" stroke="#2C2C2C" stroke-width="3.49597" stroke-miterlimit="10"/>
<path d="M-921.69 320.796C-921.69 320.796 -552.969 680.358 -135.212 645.867C274.36 612.04 542.159 243.826 933.584 360.601C1325 477.408 1202.3 595.589 1592.05 730.972" stroke="#252525" stroke-width="3.49597" stroke-miterlimit="10"/>
<path d="M-923.651 328.105C-923.651 328.105 -554.151 695.674 -132.733 648.858C282.175 602.712 550.905 224.149 942.414 350.61C1333.88 477.089 1202.3 602.953 1592.89 733.172" stroke="#1F1F1F" stroke-width="3.49597" stroke-miterlimit="10"/>
<path d="M-925.67 335.422C-925.67 335.422 -555.455 710.969 -130.33 651.811C289.915 593.346 559.685 204.443 951.186 340.627C1342.69 476.811 1202.22 610.356 1593.67 735.38" stroke="#191919" stroke-width="3.49597" stroke-miterlimit="10"/>
<path d="M-927.657 342.716C-927.657 342.716 -556.792 726.213 -127.878 654.787C297.621 583.93 568.468 184.778 960.02 330.634C1351.57 476.491 1202.24 617.764 1594.55 737.592" stroke="#131313" stroke-width="3.49597" stroke-miterlimit="10"/>
<path d="M-929.663 350.008C-929.663 350.008 -558.244 741.413 -125.463 657.714C305.195 574.423 577.214 165.065 968.819 320.594C1360.41 476.155 1202.2 625.109 1595.35 739.775" stroke="#0C0C0C" stroke-width="3.49597" stroke-miterlimit="10"/>
<path d="M-931.673 357.329C-931.673 357.329 -559.778 756.648 -123.033 660.717C312.736 565.01 585.989 145.395 977.617 310.661C1369.26 475.895 1202.15 632.563 1596.19 742.047" stroke="#17112E" stroke-opacity="0.8" stroke-width="3.49597" stroke-miterlimit="10"/>
<path d="M-931.673 357.329C-931.673 357.329 -559.778 756.648 -123.033 660.717C312.736 565.01 585.989 145.395 977.617 310.661C1369.26 475.895 1202.15 632.563 1596.19 742.047" stroke="black" stroke-opacity="0.2" stroke-width="3.49597" stroke-miterlimit="10"/>
<path d="M-931.673 357.329C-931.673 357.329 -559.778 756.648 -123.033 660.717C312.736 565.01 585.989 145.395 977.617 310.661C1369.26 475.895 1202.15 632.563 1596.19 742.047" stroke="black" stroke-opacity="0.2" stroke-width="3.49597" stroke-miterlimit="10"/>
<path d="M-931.673 357.329C-931.673 357.329 -559.778 756.648 -123.033 660.717C312.736 565.01 585.989 145.395 977.617 310.661C1369.26 475.895 1202.15 632.563 1596.19 742.047" stroke="black" stroke-opacity="0.2" stroke-width="3.49597" stroke-miterlimit="10"/>
<path d="M-931.673 357.329C-931.673 357.329 -559.778 756.648 -123.033 660.717C312.736 565.01 585.989 145.395 977.617 310.661C1369.26 475.895 1202.15 632.563 1596.19 742.047" stroke="black" stroke-opacity="0.2" stroke-width="3.49597" stroke-miterlimit="10"/>
<path d="M-931.673 357.329C-931.673 357.329 -559.778 756.648 -123.033 660.717C312.736 565.01 585.989 145.395 977.617 310.661C1369.26 475.895 1202.15 632.563 1596.19 742.047" stroke="black" stroke-opacity="0.2" stroke-width="3.49597" stroke-miterlimit="10"/>
<path d="M-931.673 357.329C-931.673 357.329 -559.778 756.648 -123.033 660.717C312.736 565.01 585.989 145.395 977.617 310.661C1369.26 475.895 1202.15 632.563 1596.19 742.047" stroke="black" stroke-opacity="0.2" stroke-width="3.49597" stroke-miterlimit="10"/>
<path d="M-931.673 357.329C-931.673 357.329 -559.778 756.648 -123.033 660.717C312.736 565.01 585.989 145.395 977.617 310.661C1369.26 475.895 1202.15 632.563 1596.19 742.047" stroke="black" stroke-opacity="0.2" stroke-width="3.49597" stroke-miterlimit="10"/>
<path d="M-933.672 364.62C-933.672 364.62 -561.378 771.855 -120.592 663.69C320.194 555.524 594.729 125.713 986.409 300.652C1378.09 475.59 1202.13 639.954 1596.99 744.228" stroke="#17112E" stroke-width="3.49597" stroke-miterlimit="10"/>
<g opacity="0.3">
<path d="M-835.947 152.355C-835.947 152.355 -373.606 341.494 -244.241 714.634C-114.876 1087.77 73.2716 1288.34 546.901 1015.12C1020.55 741.944 1400.63 635.136 1705.54 1180.8" stroke="white" stroke-width="3.49597" stroke-miterlimit="10"/>
<path d="M1701.79 1170.96C1404.33 638.623 1028.65 760.167 554.507 1021.37C80.3595 1282.58 -97.1089 1069.78 -244.039 707.439C-390.969 345.095 -849.421 171.347 -855.454 165.854" stroke="#F9F9F9" stroke-width="3.49597" stroke-miterlimit="10"/>
<path d="M1698.04 1161.12C1408.01 642.092 1036.74 778.373 562.089 1027.61C87.4413 1276.85 -79.3195 1051.75 -243.86 700.226C-408.401 348.698 -862.9 190.367 -874.952 179.349" stroke="#F3F3F3" stroke-width="3.49597" stroke-miterlimit="10"/>
<path d="M1694.32 1151.3C1411.72 645.58 1044.85 796.598 569.697 1033.87C94.5635 1271.12 -61.5501 1033.76 -243.624 693.046C-425.729 352.315 -876.34 209.374 -894.392 192.877" stroke="#ECECEC" stroke-width="3.49597" stroke-miterlimit="10"/>
<path d="M1690.56 1141.46C1415.39 649.049 1052.91 814.835 577.287 1040.08C101.653 1265.36 -43.7538 1015.7 -243.438 685.801C-443.123 355.899 -889.812 228.362 -913.884 206.34" stroke="#E6E6E6" stroke-width="3.49597" stroke-miterlimit="10"/>
<path d="M1686.81 1131.62C1419.08 652.491 1061.02 833.06 584.867 1046.32C108.714 1259.59 -25.9809 997.711 -243.249 678.56C-460.498 359.456 -903.313 247.34 -933.403 219.794" stroke="#E0E0E0" stroke-width="3.49597" stroke-miterlimit="10"/>
<path d="M1683.07 1121.79C1422.8 655.982 1069.1 851.275 592.452 1052.57C115.799 1253.87 -8.22104 979.677 -243.068 671.356C-477.914 363.034 -916.776 266.337 -952.899 233.297" stroke="#DADADA" stroke-width="3.49597" stroke-miterlimit="10"/>
<path d="M1679.32 1111.95C1426.48 659.457 1077.19 869.486 600.047 1058.79C122.907 1248.09 9.56694 961.655 -242.844 664.13C-495.27 366.638 -930.243 285.33 -972.353 246.78" stroke="#D3D3D3" stroke-width="3.49597" stroke-miterlimit="10"/>
<path d="M1675.56 1102.11C1430.15 662.929 1085.26 887.695 607.618 1065.03C129.992 1242.33 27.3134 943.616 -242.677 656.921C-512.667 370.225 -943.752 304.308 -991.862 260.278" stroke="#CDCDCD" stroke-width="3.49597" stroke-miterlimit="10"/>
<path d="M1671.85 1092.29C1433.86 666.414 1093.41 905.931 615.249 1071.25C137.123 1236.59 45.1368 925.604 -242.451 649.692C-530.038 373.779 -957.184 323.312 -1011.35 273.743" stroke="#C7C7C7" stroke-width="3.49597" stroke-miterlimit="10"/>
<path d="M1668.08 1082.45C1437.53 669.885 1101.47 924.139 622.815 1077.49C144.157 1230.85 62.8643 907.596 -242.288 642.481C-547.454 377.398 -970.711 342.32 -1030.87 287.273" stroke="#C1C1C1" stroke-width="3.49597" stroke-miterlimit="10"/>
<path d="M1664.33 1072.62C1441.25 673.346 1109.55 942.354 630.396 1083.74C151.251 1225.1 80.6515 889.577 -242.08 635.291C-564.811 381.005 -984.147 361.331 -1050.34 300.791" stroke="#BBBBBB" stroke-width="3.49597" stroke-miterlimit="10"/>
<path d="M1660.59 1062.77C1444.93 676.812 1117.63 960.589 637.994 1089.95C158.349 1219.34 98.4114 871.532 -241.885 628.043C-582.181 384.555 -997.642 380.302 -1069.86 314.237" stroke="#B4B4B4" stroke-width="3.49597" stroke-miterlimit="10"/>
<path d="M1656.86 1052.95C1448.63 680.299 1125.72 978.813 645.592 1096.21C165.46 1213.6 116.216 853.521 -241.691 620.848C-599.598 388.174 -1011.09 399.308 -1089.34 327.75" stroke="#AEAEAE" stroke-width="3.49597" stroke-miterlimit="10"/>
<path d="M1653.11 1043.11C1452.31 683.769 1133.84 997.033 653.176 1102.45C172.511 1207.86 133.96 835.512 -241.512 613.636C-616.984 391.76 -1024.6 418.315 -1108.84 341.246" stroke="#A8A8A8" stroke-width="3.49597" stroke-miterlimit="10"/>
<path d="M1649.35 1033.27C1455.98 687.24 1141.92 1015.24 660.765 1108.66C179.6 1202.1 151.742 817.486 -241.295 606.407C-634.332 395.327 -1038.03 437.286 -1128.3 354.725" stroke="#A2A2A2" stroke-width="3.49597" stroke-miterlimit="10"/>
<path d="M1645.61 1023.44C1459.7 690.739 1150 1033.46 668.354 1114.91C186.703 1196.36 169.507 799.46 -241.109 599.21C-651.757 398.946 -1051.53 456.309 -1147.82 368.222" stroke="#9B9B9B" stroke-width="3.49597" stroke-miterlimit="10"/>
<path d="M1641.88 1013.57C1463.39 694.181 1158.09 1051.67 675.949 1121.12C193.797 1190.61 187.294 781.436 -240.919 591.969C-669.132 402.502 -1065 475.301 -1167.31 381.689" stroke="#959595" stroke-width="3.49597" stroke-miterlimit="10"/>
<path d="M1638.11 1003.73C1467.06 697.65 1166.2 1069.86 683.528 1127.33C200.891 1184.82 205.049 763.363 -240.743 584.725C-686.521 406.055 -1078.5 494.244 -1186.81 395.153" stroke="#8F8F8F" stroke-width="3.49597" stroke-miterlimit="10"/>
<path d="M1634.39 993.936C1470.77 701.131 1174.3 1088.11 691.133 1133.62C207.963 1179.12 222.846 745.411 -240.51 577.57C-703.867 409.729 -1091.93 513.322 -1206.25 408.706" stroke="#898989" stroke-width="3.49597" stroke-miterlimit="10"/>
<path d="M1630.64 984.103C1474.45 704.609 1182.38 1106.33 698.714 1139.86C215.057 1173.37 240.588 727.409 -240.333 570.366C-721.287 413.308 -1105.43 532.305 -1225.78 422.196" stroke="#838383" stroke-width="3.49597" stroke-miterlimit="10"/>
<path d="M1626.89 974.232C1478.16 708.063 1190.45 1124.53 706.306 1146.04C222.149 1167.58 258.387 709.319 -240.145 563.091C-738.678 416.863 -1118.93 551.249 -1245.27 435.63" stroke="#7C7C7C" stroke-width="3.49597" stroke-miterlimit="10"/>
<path d="M1623.14 964.388C1481.84 711.529 1198.57 1142.75 713.891 1152.28C229.248 1161.82 276.133 691.307 -239.965 555.875C-756.062 420.444 -1132.39 570.234 -1264.77 449.122" stroke="#767676" stroke-width="3.49597" stroke-miterlimit="10"/>
<path d="M1619.42 954.569C1485.55 715.021 1206.67 1160.98 721.499 1158.54C236.323 1156.1 293.948 673.301 -239.746 548.653C-773.423 424.051 -1145.83 589.245 -1284.24 462.64" stroke="#707070" stroke-width="3.49597" stroke-miterlimit="10"/>
<path d="M1615.67 944.736C1489.22 718.498 1214.75 1179.19 729.091 1164.76C243.429 1150.32 311.702 655.267 -239.526 541.43C-790.799 427.612 -1159.3 608.242 -1303.73 476.111" stroke="#6A6A6A" stroke-width="3.49597" stroke-miterlimit="10"/>
<path d="M1611.91 934.89C1492.94 721.945 1222.83 1197.4 736.667 1170.99C250.505 1144.59 329.471 637.267 -239.354 534.213C-808.16 431.205 -1172.79 627.257 -1323.2 489.616" stroke="#646464" stroke-width="3.49597" stroke-miterlimit="10"/>
<path d="M1608.19 925.066C1496.65 725.431 1230.97 1215.63 744.289 1177.22C257.64 1138.81 347.267 619.21 -239.136 526.985C-825.553 434.792 -1186.26 646.248 -1342.71 503.114" stroke="#5D5D5D" stroke-width="3.49597" stroke-miterlimit="10"/>
<path d="M1604.42 915.226C1500.3 728.902 1239.02 1233.84 751.844 1183.46C264.695 1133.09 365.015 601.215 -238.954 519.788C-842.968 438.378 -1199.75 665.238 -1362.22 516.579" stroke="#575757" stroke-width="3.49597" stroke-miterlimit="10"/>
<path d="M1600.66 905.378C1503.98 732.364 1247.1 1252.04 759.422 1189.69C271.755 1127.31 382.801 583.181 -238.779 512.568C-860.358 441.956 -1213.22 684.219 -1381.72 530.067" stroke="#515151" stroke-width="3.49597" stroke-miterlimit="10"/>
<path d="M1596.94 895.557C1507.68 735.853 1255.2 1270.3 767.042 1195.92C278.875 1121.57 400.582 565.159 -238.562 505.344C-877.721 445.561 -1226.7 703.214 -1401.2 543.583" stroke="#4B4B4B" stroke-width="3.49597" stroke-miterlimit="10"/>
<path d="M1593.19 885.723C1511.39 739.344 1263.28 1288.51 774.622 1202.17C285.968 1115.82 418.354 547.17 -238.387 498.138C-895.11 449.152 -1240.17 722.209 -1420.69 557.053" stroke="#444444" stroke-width="3.49597" stroke-miterlimit="10"/>
<path d="M1589.44 875.878C1515.08 742.777 1271.38 1306.73 782.198 1208.4C293.043 1110.09 436.105 529.124 -238.215 490.921C-912.535 452.718 -1253.68 741.211 -1440.22 570.53" stroke="#3E3E3E" stroke-width="3.49597" stroke-miterlimit="10"/>
<path d="M1585.71 866.059C1518.78 746.269 1279.49 1324.96 789.82 1214.63C300.133 1104.34 453.92 511.119 -237.965 483.713C-929.864 456.339 -1267.12 760.222 -1459.66 584.062" stroke="#383838" stroke-width="3.49597" stroke-miterlimit="10"/>
<path d="M1581.96 856.225C1522.46 749.746 1287.57 1343.17 797.4 1220.88C307.227 1098.59 471.675 493.084 -237.789 476.507C-947.253 459.931 -1280.59 779.218 -1479.15 597.533" stroke="#323232" stroke-width="3.49597" stroke-miterlimit="10"/>
<path d="M1578.21 846.381C1526.17 753.226 1295.68 1361.39 805.007 1227.13C314.333 1092.87 489.474 475.099 -237.587 469.305C-964.648 463.512 -1294.07 798.202 -1498.66 611.025" stroke="#2C2C2C" stroke-width="3.49597" stroke-miterlimit="10"/>
<path d="M1574.45 836.541C1529.84 756.696 1303.74 1379.63 812.595 1233.34C321.435 1087.09 507.224 457.058 -237.402 462.061C-982.01 467.111 -1307.54 817.191 -1518.13 624.535" stroke="#252525" stroke-width="3.49597" stroke-miterlimit="10"/>
<path d="M1570.73 826.72C1533.54 760.186 1311.86 1397.82 820.17 1239.59C328.509 1081.37 525.005 439.037 -237.199 454.87C-999.404 470.703 -1321.01 836.187 -1537.62 638.006" stroke="#1F1F1F" stroke-width="3.49597" stroke-miterlimit="10"/>
<path d="M1566.97 816.869C1537.21 763.645 1319.92 1416.05 827.738 1245.82C335.559 1075.58 542.734 421.017 -237.035 447.647C-1016.8 474.277 -1334.51 855.197 -1557.14 651.491" stroke="#191919" stroke-width="3.49597" stroke-miterlimit="10"/>
<path d="M1563.21 807.035C1540.88 767.121 1327.99 1434.26 835.324 1252.03C342.645 1069.83 560.527 402.964 -236.853 440.409C-1034.2 477.868 -1347.98 874.192 -1576.65 664.993" stroke="#131313" stroke-width="3.49597" stroke-miterlimit="10"/>
<path d="M1559.49 797.213C1544.63 770.592 1336.13 1452.5 842.963 1258.3C349.798 1064.11 578.328 384.988 -236.618 433.23C-1051.55 481.44 -1361.46 893.186 -1596.11 678.476" stroke="#0C0C0C" stroke-width="3.49597" stroke-miterlimit="10"/>
<path d="M1555.74 787.367C1548.31 774.057 1344.21 1470.7 850.53 1264.49C356.864 1058.33 596.087 366.941 -236.423 425.98C-1068.93 485.019 -1374.92 912.169 -1615.6 691.966" stroke="#060606" stroke-width="3.49597" stroke-miterlimit="10"/>
<path d="M1551.97 777.533C1551.97 777.533 1352.28 1488.91 858.125 1270.75C363.941 1052.58 613.857 348.92 -236.232 418.788C-1086.34 488.61 -1388.41 931.164 -1635.12 705.468" stroke="#0071E3" stroke-width="3.49597" stroke-miterlimit="10"/>
</g>
</g>
</g>
<defs>
<clipPath id="clip0_90_135">
<rect width="1512" height="985" fill="white"/>
</clipPath>
<clipPath id="clip1_90_135">
<rect width="1800.07" height="1004" fill="white" transform="translate(1423.87 1586.04) rotate(-156.428)"/>
</clipPath>
</defs>
</svg>
