<svg width="17" height="16" viewBox="0 0 17 16" fill="none" xmlns="http://www.w3.org/2000/svg">
<path fill-rule="evenodd" clip-rule="evenodd" d="M10.626 8.27507C10.626 7.90687 10.9244 7.6084 11.2926 7.6084H11.2986C11.6668 7.6084 11.9653 7.90687 11.9653 8.27507C11.9653 8.64327 11.6668 8.94173 11.2986 8.94173H11.2926C10.9244 8.94173 10.626 8.64327 10.626 8.27507Z" fill="white"/>
<path fill-rule="evenodd" clip-rule="evenodd" d="M7.95312 8.27507C7.95312 7.90687 8.25159 7.6084 8.61979 7.6084H8.62579C8.99399 7.6084 9.29246 7.90687 9.29246 8.27507C9.29246 8.64327 8.99399 8.94173 8.62579 8.94173H8.61979C8.25159 8.94173 7.95312 8.64327 7.95312 8.27507Z" fill="white"/>
<path fill-rule="evenodd" clip-rule="evenodd" d="M5.28125 8.27507C5.28125 7.90687 5.57972 7.6084 5.94792 7.6084H5.95392C6.3221 7.6084 6.62058 7.90687 6.62058 8.27507C6.62058 8.64327 6.3221 8.94173 5.95392 8.94173H5.94792C5.57972 8.94173 5.28125 8.64327 5.28125 8.27507Z" fill="white"/>
<path fill-rule="evenodd" clip-rule="evenodd" d="M13.027 3.63789C10.6214 1.23138 6.71257 1.23138 4.307 3.63789C2.42307 5.52145 2.01385 8.31361 3.07122 10.5986C3.07477 10.6063 3.07813 10.614 3.08128 10.6219C3.14273 10.7745 3.14135 10.9475 3.13858 11.0454C3.13511 11.1683 3.12152 11.3098 3.10474 11.4538C3.08888 11.5899 3.06873 11.7399 3.04826 11.8924L3.04401 11.9241C3.02183 12.0893 2.99925 12.2589 2.97953 12.4288C2.93956 12.7733 2.91446 13.095 2.92563 13.3523C2.93119 13.4806 2.94521 13.5756 2.96311 13.6407C2.96915 13.6627 2.97467 13.6778 2.97874 13.6875C2.98848 13.6916 3.00359 13.6971 3.02553 13.7031C3.09069 13.721 3.18573 13.735 3.31397 13.7406C3.57133 13.7517 3.89302 13.7266 4.23748 13.6867C4.40732 13.667 4.57691 13.6444 4.74212 13.6223L4.77361 13.6181C4.92613 13.5976 5.07619 13.5775 5.21237 13.5616C5.35635 13.5449 5.49789 13.5313 5.62073 13.5279C5.71859 13.5251 5.89157 13.5237 6.04419 13.5852C6.05199 13.5883 6.0597 13.5917 6.06733 13.5952C8.35279 14.6521 11.1438 14.2435 13.027 12.3594C15.4329 9.95314 15.4377 6.04823 13.027 3.63789ZM13.7341 2.93083C10.938 0.133703 6.39585 0.133733 3.59975 2.93092C1.42373 5.10661 0.942894 8.32287 2.13912 10.9649C2.13948 10.9766 2.13965 10.9937 2.13898 11.0171C2.13678 11.0951 2.12735 11.2017 2.11146 11.3381C2.09666 11.4651 2.07763 11.6068 2.05677 11.7622L2.05289 11.7911C2.03077 11.9559 2.00707 12.1337 1.9862 12.3135C1.94502 12.6684 1.91179 13.0553 1.92657 13.3957C1.93397 13.5663 1.95399 13.7425 1.99887 13.9057C2.04273 14.0653 2.12033 14.2496 2.26856 14.3979C2.41683 14.546 2.60129 14.6237 2.7608 14.6675C2.92405 14.7123 3.10013 14.7323 3.27071 14.7397C3.61102 14.7544 3.99782 14.7212 4.35265 14.68C4.53245 14.6592 4.71021 14.6355 4.87503 14.6134L4.90364 14.6096C5.0591 14.5887 5.20083 14.5697 5.32793 14.5549C5.46436 14.5391 5.57091 14.5297 5.64883 14.5275C5.67231 14.5268 5.68943 14.5269 5.70111 14.5273C8.34339 15.723 11.5587 15.2429 13.7342 13.0664C16.53 10.2703 16.5359 5.73227 13.7341 2.93083Z" fill="white"/>
</svg>
