<svg width="16" height="14" viewBox="0 0 16 14" fill="none" xmlns="http://www.w3.org/2000/svg">
<path d="M4.61819 7.42845H3.38328C3.38458 7.4918 3.36124 7.55319 3.31819 7.59968C3.27514 7.64618 3.21572 7.67416 3.15246 7.67773H0.911162V1.80328C0.910249 1.69385 0.930899 1.58532 0.971933 1.48387C1.01297 1.38242 1.07358 1.29005 1.15032 1.21203C1.22705 1.13401 1.3184 1.07187 1.41915 1.02915C1.5199 0.986439 1.62808 0.963988 1.73751 0.963082H3.15246C3.21552 0.967213 3.2746 0.995362 3.31754 1.04173C3.36048 1.08811 3.38401 1.14918 3.38328 1.21237H4.60895C4.65412 1.21267 4.69878 1.22187 4.74039 1.23943C4.782 1.257 4.81975 1.28258 4.85147 1.31474C4.88319 1.34689 4.90827 1.38497 4.92528 1.42682C4.94228 1.46866 4.95087 1.51344 4.95057 1.55861V7.08452C4.95062 7.17377 4.91597 7.25954 4.85395 7.32372C4.79193 7.3879 4.70739 7.42545 4.61819 7.42845ZM2.43229 1.91638C2.43259 1.8791 2.42555 1.84212 2.41156 1.80756C2.39757 1.77299 2.37692 1.74153 2.35077 1.71495C2.32462 1.68837 2.29349 1.6672 2.25916 1.65265C2.22483 1.63811 2.18797 1.63046 2.15068 1.63016C2.07558 1.63137 2.00395 1.66206 1.95127 1.71561C1.89859 1.76916 1.86907 1.84127 1.86908 1.91638V2.53961C1.87144 2.61311 1.90201 2.68289 1.95444 2.73446C2.00687 2.78604 2.07715 2.81545 2.15068 2.81659C2.2244 2.81602 2.295 2.78679 2.34755 2.7351C2.4001 2.68341 2.43049 2.6133 2.43229 2.53961V1.91638Z" fill="white"/>
<path d="M11.7947 11.2605C11.7947 10.1525 11.1253 9.52931 10.936 8.78836H13.5559C13.9591 8.78422 14.3448 8.62299 14.631 8.33893C14.9172 8.05488 15.0814 7.67041 15.0885 7.26724C15.0881 6.79156 14.9104 6.33314 14.59 5.98155C14.7256 5.64306 14.7755 5.2763 14.7352 4.91389C14.6949 4.55147 14.5657 4.20461 14.3591 3.90414C14.457 3.56848 14.4696 3.21371 14.3959 2.87194C14.3221 2.53017 14.1643 2.21218 13.9367 1.94676C13.996 1.75099 14.0119 1.54464 13.9831 1.34211C13.9544 1.13958 13.8819 0.945763 13.7705 0.774175C13.242 0.000916481 11.9378 0.000916481 10.8368 0.000916481H10.7698C9.52801 0.000916481 8.51008 0.462563 7.69296 0.831881C7.2821 1.01654 6.74428 1.24736 6.33572 1.25429C6.25429 1.2567 6.17703 1.29091 6.12051 1.34958C6.06399 1.40826 6.0327 1.48674 6.03334 1.56821V7.15644C6.03207 7.19919 6.03961 7.24175 6.05549 7.28146C6.07138 7.32117 6.09526 7.35719 6.12567 7.38726C7.1436 8.41212 7.58217 9.49468 8.42006 10.3464C8.79399 10.7273 8.92325 11.3113 9.06636 11.8814C9.17946 12.3638 9.41952 13.3887 9.93887 13.3887C10.5575 13.3887 11.7947 13.1832 11.7947 11.2605Z" fill="white"/>
</svg>
