<svg width="33" height="30" viewBox="0 0 33 30" fill="none" xmlns="http://www.w3.org/2000/svg">
<path fill-rule="evenodd" clip-rule="evenodd" d="M21.422 3.4006C25.8394 3.4006 29.4213 6.98251 29.4213 11.3999C29.4213 12.6419 29.1408 13.8134 28.6383 14.8573C28.4193 15.3148 28.3323 15.8563 28.4448 16.4008L28.9758 18.9898L26.2458 18.4783C25.7253 18.3823 25.2138 18.4633 24.7759 18.6658C23.7574 19.1368 22.6234 19.4008 21.4219 19.4008C17.0045 19.4008 13.4226 15.8189 13.4226 11.3999C13.4226 6.98247 17.0046 3.4006 21.422 3.4006ZM32.6222 11.3999C32.6222 5.21573 27.6077 0.201172 21.422 0.201172C15.2362 0.201172 10.2217 5.21573 10.2217 11.3999C10.2217 17.5857 15.2362 22.6002 21.422 22.6002C23.0104 22.6002 24.5254 22.2687 25.8978 21.6687L29.5577 22.3542C31.2332 22.6677 32.6926 21.1827 32.3491 19.5118L31.6306 16.0109C32.2681 14.6039 32.6222 13.041 32.6222 11.3999Z" fill="white"/>
<path fill-rule="evenodd" clip-rule="evenodd" d="M7.82304 11.669C5.42758 13.055 3.8226 15.641 3.8226 18.5989C3.8226 19.8409 4.1031 21.0124 4.6056 22.0563C4.8246 22.5138 4.9116 23.0553 4.7991 23.5998L4.26812 26.1887L6.99807 25.6773C7.51857 25.5813 8.03005 25.6623 8.46803 25.8648C9.48649 26.3358 10.6205 26.5997 11.822 26.5997C13.8724 26.5997 15.7383 25.8303 17.1545 24.5628L19.2889 26.9462C17.309 28.7192 14.6899 29.7992 11.8222 29.7992C10.2337 29.7992 8.71878 29.4677 7.34639 28.8677L3.68648 29.5532C2.01101 29.8667 0.551531 28.3817 0.895051 26.7108L1.61354 23.2098C0.976034 21.8013 0.62207 20.2399 0.62207 18.5988C0.62207 14.4513 2.87802 10.8334 6.22145 8.89844L7.82304 11.669Z" fill="#FD5F49"/>
</svg>
