<svg class="icon home" width="24" height="24" viewBox="0 0 24 22" fill="none" xmlns="http://www.w3.org/2000/svg">
  <path d="M7.30665 18.7733V15.7156C7.30665 14.9351 7.94405 14.3023 8.73031 14.3023H11.6045C11.9821 14.3023 12.3442 14.4512 12.6112 14.7163C12.8782 14.9813 13.0281 15.3408 13.0281 15.7156V18.7733C13.0258 19.0978 13.1539 19.4099 13.3842 19.6402C13.6146 19.8705 13.9279 20 14.2548 20H16.2157C17.1315 20.0023 18.0106 19.6428 18.659 19.0008C19.3075 18.3588 19.6719 17.487 19.6719 16.5778V7.86686C19.6719 7.13246 19.3439 6.43584 18.7765 5.96467L12.1059 0.675869C10.9455 -0.251438 9.28299 -0.221498 8.15727 0.746979L1.63889 5.96467C1.04462 6.42195 0.689427 7.12064 0.671875 7.86686V16.5689C0.671875 18.4639 2.21926 20 4.12805 20H6.04417C6.7231 20 7.27487 19.4562 7.27979 18.7822L7.30665 18.7733Z"/>
</svg>
