<svg width="16" height="14" viewBox="0 0 16 14" fill="none" xmlns="http://www.w3.org/2000/svg">
<path d="M4.61819 5.96023H3.38328C3.38458 5.89687 3.36124 5.83549 3.31819 5.78899C3.27514 5.74249 3.21572 5.71451 3.15246 5.71094H0.911162V11.5854C0.910249 11.6948 0.930899 11.8034 0.971933 11.9048C1.01297 12.0063 1.07358 12.0986 1.15032 12.1766C1.22705 12.2547 1.3184 12.3168 1.41915 12.3595C1.5199 12.4022 1.62808 12.4247 1.73751 12.4256H3.15246C3.21552 12.4215 3.2746 12.3933 3.31754 12.3469C3.36048 12.3006 3.38401 12.2395 3.38328 12.1763H4.60895C4.65412 12.176 4.69878 12.1668 4.74039 12.1492C4.782 12.1317 4.81975 12.1061 4.85147 12.0739C4.88319 12.0418 4.90827 12.0037 4.92528 11.9619C4.94228 11.92 4.95087 11.8752 4.95057 11.8301V6.30415C4.95062 6.2149 4.91597 6.12913 4.85395 6.06495C4.79193 6.00077 4.70738 5.96322 4.61819 5.96023ZM2.43229 11.4723C2.43259 11.5096 2.42555 11.5466 2.41156 11.5811C2.39757 11.6157 2.37692 11.6471 2.35077 11.6737C2.32462 11.7003 2.29349 11.7215 2.25916 11.736C2.22483 11.7506 2.18797 11.7582 2.15068 11.7585C2.07558 11.7573 2.00395 11.7266 1.95127 11.6731C1.89859 11.6195 1.86907 11.5474 1.86908 11.4723V10.8491C1.87144 10.7756 1.90201 10.7058 1.95444 10.6542C2.00687 10.6026 2.07715 10.5732 2.15068 10.5721C2.2244 10.5727 2.295 10.6019 2.34755 10.6536C2.4001 10.7053 2.43049 10.7754 2.43229 10.8491V11.4723Z" fill="white"/>
<path d="M11.7942 2.12819C11.7942 3.23614 11.1248 3.85937 10.9355 4.60031H13.5554C13.9586 4.60445 14.3443 4.76569 14.6305 5.04974C14.9167 5.33379 15.0809 5.71826 15.0881 6.12144C15.0876 6.59711 14.9099 7.05554 14.5895 7.40712C14.7251 7.74562 14.775 8.11237 14.7347 8.47479C14.6944 8.8372 14.5653 9.18406 14.3587 9.48453C14.4565 9.82019 14.4692 10.175 14.3954 10.5167C14.3216 10.8585 14.1638 11.1765 13.9362 11.4419C13.9955 11.6377 14.0114 11.844 13.9827 12.0466C13.954 12.2491 13.8814 12.4429 13.7701 12.6145C13.2415 13.3878 11.9373 13.3878 10.8363 13.3878H10.7693C9.52752 13.3878 8.50959 12.9261 7.69247 12.5568C7.28161 12.3721 6.74379 12.1413 6.33523 12.1344C6.2538 12.132 6.17655 12.0978 6.12003 12.0391C6.06351 11.9804 6.03221 11.9019 6.03285 11.8205V6.23223C6.03158 6.18948 6.03912 6.14692 6.055 6.10721C6.07089 6.0675 6.09478 6.03149 6.12518 6.00141C7.14311 4.97655 7.58168 3.89399 8.41957 3.04225C8.7935 2.66139 8.92276 2.07741 9.06587 1.50728C9.17898 1.02486 9.41903 0 9.93839 0C10.557 0 11.7942 0.205433 11.7942 2.12819Z" fill="white"/>
</svg>
