<svg width="156" height="42" viewBox="0 0 156 42" fill="none" xmlns="http://www.w3.org/2000/svg">
<path fill-rule="evenodd" clip-rule="evenodd" d="M28.9866 5.32368C34.9563 5.32368 39.7968 10.1643 39.7968 16.1339C39.7968 17.8123 39.4178 19.3955 38.7387 20.8063C38.4427 21.4245 38.3252 22.1563 38.4772 22.8921L39.1948 26.3908L35.5055 25.6996C34.8021 25.5698 34.1109 25.6793 33.519 25.953C32.1427 26.5895 30.6102 26.9462 28.9865 26.9462C23.0168 26.9462 18.1763 22.1057 18.1763 16.1339C18.1763 10.1642 23.0169 5.32368 28.9866 5.32368ZM44.1226 16.1339C44.1226 7.77664 37.3459 1 28.9866 1C20.6272 1 13.8506 7.77664 13.8506 16.1339C13.8506 24.4933 20.6272 31.2699 28.9866 31.2699C31.1332 31.2699 33.1805 30.822 35.0352 30.0111L39.9812 30.9375C42.2454 31.3612 44.2177 29.3544 43.7535 27.0963L42.7825 22.3651C43.644 20.4637 44.1226 18.3516 44.1226 16.1339Z" fill="white"/>
<path fill-rule="evenodd" clip-rule="evenodd" d="M10.6093 16.498C7.37206 18.371 5.20311 21.8658 5.20311 25.863C5.20311 27.5415 5.58217 29.1246 6.26125 30.5354C6.5572 31.1536 6.67477 31.8854 6.52274 32.6212L5.80517 36.1199L9.49442 35.4287C10.1978 35.299 10.889 35.4084 11.4809 35.6821C12.8573 36.3186 14.3897 36.6754 16.0134 36.6754C18.7844 36.6754 21.3059 35.6355 23.2197 33.9226L26.1042 37.1436C23.4285 39.5396 19.8891 40.999 16.0137 40.999C13.8671 40.999 11.8198 40.5511 9.96514 39.7402L5.01916 40.6666C2.75493 41.0903 0.782603 39.0835 1.24683 36.8254L2.21779 32.0942C1.35627 30.1908 0.87793 28.0807 0.87793 25.863C0.87793 20.2581 3.92661 15.3688 8.44489 12.7539L10.6093 16.498Z" fill="#FD5F49"/>
<path d="M69.8181 33.384C67.8554 33.384 66.1914 33.0533 64.8261 32.392C63.4607 31.7093 62.2981 30.8347 61.3381 29.768L64.5381 26.536C66.0527 28.2427 67.9194 29.096 70.1381 29.096C71.3327 29.096 72.2181 28.8507 72.7941 28.36C73.3701 27.8693 73.6581 27.2187 73.6581 26.408C73.6581 25.7893 73.4874 25.2773 73.1461 24.872C72.8047 24.4453 72.1114 24.1573 71.0661 24.008L68.8581 23.72C66.4901 23.4213 64.7514 22.7067 63.6421 21.576C62.5541 20.4453 62.0101 18.9413 62.0101 17.064C62.0101 16.0613 62.2021 15.144 62.5861 14.312C62.9701 13.48 63.5141 12.7653 64.2181 12.168C64.9434 11.5707 65.8181 11.112 66.8421 10.792C67.8874 10.4507 69.0714 10.28 70.3941 10.28C72.0794 10.28 73.5621 10.5467 74.8421 11.08C76.1221 11.6133 77.2207 12.392 78.1381 13.416L74.9061 16.68C74.3727 16.0613 73.7221 15.56 72.9541 15.176C72.2074 14.7707 71.2581 14.568 70.1061 14.568C69.0181 14.568 68.2074 14.76 67.6741 15.144C67.1407 15.528 66.8741 16.0613 66.8741 16.744C66.8741 17.512 67.0767 18.0667 67.4821 18.408C67.9087 18.7493 68.5914 18.9947 69.5301 19.144L71.7381 19.496C74.0421 19.8587 75.7487 20.5733 76.8581 21.64C77.9674 22.6853 78.5221 24.1787 78.5221 26.12C78.5221 27.1867 78.3301 28.168 77.9461 29.064C77.5621 29.96 76.9967 30.728 76.2501 31.368C75.5247 32.008 74.6181 32.5093 73.5301 32.872C72.4421 33.2133 71.2047 33.384 69.8181 33.384Z" fill="#FD5F49"/>
<path d="M82.2988 16.2H87.0348V19.016H87.1948C87.4295 18.0773 87.9628 17.3093 88.7948 16.712C89.6482 16.1147 90.6188 15.816 91.7068 15.816C93.8402 15.816 95.4508 16.5627 96.5388 18.056C97.6268 19.5493 98.1708 21.7253 98.1708 24.584C98.1708 27.4427 97.6268 29.6293 96.5388 31.144C95.4508 32.6373 93.8402 33.384 91.7068 33.384C91.1522 33.384 90.6295 33.2987 90.1388 33.128C89.6482 32.9787 89.2002 32.7653 88.7948 32.488C88.4108 32.1893 88.0802 31.848 87.8028 31.464C87.5255 31.0587 87.3228 30.632 87.1948 30.184H87.0348V39.4H82.2988V16.2ZM90.1388 29.544C91.0348 29.544 91.7708 29.2347 92.3468 28.616C92.9442 27.976 93.2428 27.1227 93.2428 26.056V23.144C93.2428 22.0773 92.9442 21.2347 92.3468 20.616C91.7708 19.976 91.0348 19.656 90.1388 19.656C89.2428 19.656 88.4962 19.88 87.8988 20.328C87.3228 20.7547 87.0348 21.352 87.0348 22.12V27.08C87.0348 27.848 87.3228 28.456 87.8988 28.904C88.4962 29.3307 89.2428 29.544 90.1388 29.544ZM108.776 33.384C107.496 33.384 106.354 33.1813 105.352 32.776C104.349 32.3493 103.496 31.7627 102.792 31.016C102.109 30.248 101.586 29.32 101.224 28.232C100.882 27.144 100.712 25.928 100.712 24.584C100.712 23.2613 100.882 22.0667 101.224 21C101.565 19.912 102.066 18.984 102.728 18.216C103.41 17.448 104.242 16.8613 105.224 16.456C106.205 16.0293 107.325 15.816 108.584 15.816C109.97 15.816 111.154 16.0507 112.136 16.52C113.138 16.9893 113.949 17.6187 114.568 18.408C115.208 19.1973 115.666 20.1147 115.944 21.16C116.242 22.184 116.392 23.2613 116.392 24.392V25.8H105.608V26.056C105.608 27.1653 105.906 28.0507 106.504 28.712C107.101 29.352 108.04 29.672 109.32 29.672C110.301 29.672 111.101 29.48 111.72 29.096C112.338 28.6907 112.914 28.2107 113.448 27.656L115.816 30.6C115.069 31.4747 114.088 32.1573 112.872 32.648C111.677 33.1387 110.312 33.384 108.776 33.384ZM108.68 19.304C107.72 19.304 106.962 19.624 106.408 20.264C105.874 20.8827 105.608 21.7147 105.608 22.76V23.016H111.496V22.728C111.496 21.704 111.261 20.8827 110.792 20.264C110.344 19.624 109.64 19.304 108.68 19.304ZM132.152 33C131.299 33 130.584 32.7333 130.008 32.2C129.454 31.6667 129.102 30.952 128.952 30.056H128.76C128.504 31.144 127.939 31.976 127.064 32.552C126.19 33.1067 125.112 33.384 123.832 33.384C122.147 33.384 120.856 32.936 119.96 32.04C119.064 31.144 118.616 29.96 118.616 28.488C118.616 26.7173 119.256 25.4053 120.536 24.552C121.838 23.6773 123.598 23.24 125.816 23.24H128.472V22.184C128.472 21.3733 128.259 20.7333 127.832 20.264C127.406 19.7733 126.691 19.528 125.688 19.528C124.75 19.528 124.003 19.7307 123.448 20.136C122.894 20.5413 122.435 21 122.072 21.512L119.256 19.016C119.939 18.0133 120.792 17.2347 121.816 16.68C122.862 16.104 124.27 15.816 126.04 15.816C128.43 15.816 130.222 16.3387 131.416 17.384C132.611 18.4293 133.208 19.9547 133.208 21.96V29.32H134.776V33H132.152ZM125.592 30.088C126.382 30.088 127.054 29.9173 127.608 29.576C128.184 29.2347 128.472 28.68 128.472 27.912V25.928H126.168C124.312 25.928 123.384 26.5573 123.384 27.816V28.296C123.384 28.9147 123.576 29.3733 123.96 29.672C124.344 29.9493 124.888 30.088 125.592 30.088ZM137.955 9.32H142.691V23.304H142.883L144.963 20.2L148.323 16.2H153.571L147.971 22.632L154.211 33H148.579L144.803 25.896L142.691 28.264V33H137.955V9.32Z" fill="white"/>
</svg>
