<svg width="20" height="20" viewBox="0 0 16 16" fill="none" xmlns="http://www.w3.org/2000/svg">
<path d="M10.4733 8.47277C11.1269 7.95854 11.604 7.25338 11.8382 6.45539C12.0723 5.65741 12.0519 4.80628 11.7799 4.02041C11.5078 3.23455 10.9975 2.55303 10.32 2.07067C9.64259 1.58831 8.83163 1.3291 8 1.3291C7.16836 1.3291 6.35741 1.58831 5.67995 2.07067C5.0025 2.55303 4.49223 3.23455 4.22014 4.02041C3.94805 4.80628 3.92767 5.65741 4.16184 6.45539C4.396 7.25338 4.87307 7.95854 5.52666 8.47277C4.40672 8.92146 3.42952 9.66566 2.69926 10.626C1.969 11.5864 1.51304 12.727 1.38 13.9261C1.37037 14.0136 1.37808 14.1022 1.40268 14.1868C1.42729 14.2714 1.46831 14.3503 1.52341 14.419C1.63468 14.5578 1.79652 14.6466 1.97333 14.6661C2.15014 14.6855 2.32744 14.634 2.46621 14.5227C2.60499 14.4114 2.69388 14.2496 2.71333 14.0728C2.85972 12.7696 3.48112 11.566 4.45881 10.692C5.4365 9.81795 6.70193 9.33479 8.01333 9.33479C9.32473 9.33479 10.5902 9.81795 11.5679 10.692C12.5455 11.566 13.1669 12.7696 13.3133 14.0728C13.3315 14.2366 13.4096 14.3879 13.5327 14.4974C13.6559 14.607 13.8152 14.6671 13.98 14.6661H14.0533C14.2281 14.646 14.3878 14.5576 14.4977 14.4203C14.6076 14.2829 14.6587 14.1077 14.64 13.9328C14.5063 12.7302 14.0479 11.5868 13.3139 10.6249C12.5799 9.66305 11.5979 8.91909 10.4733 8.47277ZM8 7.99943C7.47258 7.99943 6.95701 7.84303 6.51848 7.55002C6.07995 7.257 5.73815 6.84052 5.53632 6.35326C5.33449 5.86599 5.28168 5.32981 5.38457 4.81252C5.48746 4.29524 5.74144 3.82009 6.11438 3.44715C6.48732 3.07421 6.96247 2.82023 7.47976 2.71734C7.99704 2.61444 8.53322 2.66725 9.02049 2.86909C9.50776 3.07092 9.92423 3.41271 10.2173 3.85124C10.5103 4.28978 10.6667 4.80535 10.6667 5.33277C10.6667 6.04001 10.3857 6.71829 9.88562 7.21838C9.38552 7.71848 8.70724 7.99943 8 7.99943Z" fill="white" fill-opacity="0.8"/>
</svg>
