<svg width="25" height="24" viewBox="0 0 25 24" fill="none" xmlns="http://www.w3.org/2000/svg">
<path fill-rule="evenodd" clip-rule="evenodd" d="M11.4768 14.8175L15.1338 20.7505C15.2938 21.0105 15.5438 21.0075 15.6448 20.9935C15.7458 20.9795 15.9888 20.9175 16.0768 20.6225L20.6498 5.17753C20.7298 4.90453 20.5828 4.71853 20.5168 4.65253C20.4528 4.58653 20.2698 4.44553 20.0048 4.52053L4.54882 9.04653C4.25582 9.13253 4.19182 9.37853 4.17782 9.47953C4.16382 9.58253 4.15982 9.83753 4.41882 10.0005L10.4198 13.7535L15.7218 8.39553C16.0128 8.10153 16.4878 8.09853 16.7828 8.38953C17.0778 8.68053 17.0798 9.15653 16.7888 9.45053L11.4768 14.8175ZM15.5668 22.4995C14.8708 22.4995 14.2328 22.1455 13.8568 21.5375L9.97982 15.2465L3.62382 11.2715C2.93882 10.8425 2.58082 10.0785 2.69182 9.27553C2.80182 8.47253 3.35282 7.83453 4.12682 7.60753L19.5828 3.08153C20.2938 2.87353 21.0558 3.07053 21.5798 3.59253C22.1038 4.11953 22.2988 4.88953 22.0868 5.60353L17.5138 21.0475C17.2848 21.8245 16.6448 22.3735 15.8438 22.4805C15.7498 22.4925 15.6588 22.4995 15.5668 22.4995Z" fill="white" fill-opacity="0.4"/>
</svg>
